<?xml version="1.0" encoding="UTF-8"?>
<svg version="1.1" xmlns="http://www.w3.org/2000/svg" width="2000" height="1414">
<path d="M0 0 C660 0 1320 0 2000 0 C2000 466.62 2000 933.24 2000 1414 C1340 1414 680 1414 0 1414 C0 947.38 0 480.76 0 0 Z " fill="#FEFEFE" transform="translate(0,0)"/>
<path d="M0 0 C137.94 0 275.88 0 418 0 C411.25000589 7.87499312 411.25000589 7.87499312 408.06918114 11.05386668 C407.34354526 11.78149364 406.61790938 12.50912059 405.87028453 13.25879684 C404.6983169 14.42639518 404.6983169 14.42639518 403.50267315 15.61758137 C402.65692796 16.46418081 401.81118277 17.31078024 400.93980893 18.18303421 C398.59761305 20.52658841 396.25320044 22.86788377 393.90781826 25.20824657 C391.35461407 27.7571012 388.80433621 30.308881 386.25368577 32.86029071 C381.78497529 37.3295336 377.31441913 41.79692352 372.84264565 46.26310158 C366.19323217 52.90421821 359.54670618 59.54821904 352.90078881 66.19283408 C341.72037145 77.37091754 330.53769866 88.54674201 319.35381126 99.72135353 C304.08671947 114.9758434 288.82290765 130.23361203 273.55997161 145.49225982 C266.450588 152.59963719 259.34104382 159.70685394 252.23145771 166.81402874 C251.51976739 167.52547805 250.80807707 168.23692736 250.07482037 168.96993573 C233.1380116 185.90093416 216.1996299 202.83035872 199.26098633 219.75952148 C198.51987759 220.50021658 197.77876884 221.24091168 197.01520226 222.00405208 C185.73936178 233.27359502 174.46343941 244.54305603 163.1875 255.8125 C151.15400526 267.83906382 139.12054226 279.86565941 127.0871582 291.89233398 C126.34568464 292.63339296 125.60421107 293.37445194 124.8402686 294.13796725 C107.92093678 311.04785574 91.00205227 327.95819144 74.08457661 344.86993694 C73.37416086 345.58011169 72.66374512 346.29028644 71.93180163 347.02198164 C64.84095002 354.11044832 57.75017688 361.19899348 50.65952104 368.28765598 C35.40994834 383.53290683 20.15899369 398.77677158 4.90526499 414.01786419 C-6.20820755 425.12217175 -17.31998203 436.22817597 -28.42996404 447.33597586 C-35.03798173 453.94257436 -41.6474248 460.54773966 -48.25885626 467.15092192 C-52.66740205 471.55423491 -57.07415855 475.95933305 -61.47942974 480.36592209 C-63.99423127 482.88136837 -66.50984377 485.39598954 -69.02764151 487.90843711 C-71.73173804 490.60682082 -74.4320127 493.30900754 -77.13187885 496.01162434 C-77.92489644 496.80172906 -78.71791402 497.59183379 -79.53496245 498.40588108 C-80.24808074 499.12099044 -80.96119903 499.8360998 -81.69592696 500.57287914 C-82.31460751 501.19117996 -82.93328805 501.80948078 -83.57071649 502.44651799 C-85.09498996 503.95957472 -85.09498996 503.95957472 -86 506 C-88.93278393 506.43448651 -91.80021314 506.75338951 -94.75 507 C-96.49763364 507.16283212 -98.24503244 507.32820434 -99.9921875 507.49609375 C-100.85038086 507.57843262 -101.70857422 507.66077148 -102.59277344 507.74560547 C-105.70688342 508.0747031 -108.78616383 508.55022373 -111.875 509.0625 C-115.86853012 509.71562415 -119.77330132 510.1467667 -123.8125 510.375 C-130.23569441 510.7959375 -136.48133933 511.88796139 -142.8125 513 C-152.23196199 514.64996415 -161.43893934 515.71879233 -171 516 C-171 516.66 -171 517.32 -171 518 C-172.05058594 518.04898438 -173.10117188 518.09796875 -174.18359375 518.1484375 C-175.60158351 518.22356279 -177.01955116 518.29910622 -178.4375 518.375 C-179.12521484 518.4059375 -179.81292969 518.436875 -180.52148438 518.46875 C-185.07586358 518.72294791 -189.29597673 519.46175759 -193.72973633 520.51416016 C-197.49599313 521.32014478 -201.2939869 521.64904007 -205.125 522 C-210.88106386 522.55877056 -216.59131936 523.20527538 -222.3125 524.0625 C-232.15277836 525.43581357 -242.07934196 525.66554997 -252 526 C-252 526.66 -252 527.32 -252 528 C-256.80132527 528.55228674 -261.60276125 529.1035978 -266.40429688 529.65405273 C-268.03355851 529.84096704 -269.66279099 530.02813575 -271.29199219 530.21557617 C-273.65031205 530.4868553 -276.00873201 530.75724649 -278.3671875 531.02734375 C-279.12674744 531.11470795 -279.88630737 531.20207214 -280.66888428 531.29208374 C-284.7994006 531.76341714 -288.92986871 532.18953294 -293.0703125 532.56640625 C-296.76835176 532.55992134 -296.76835176 532.55992134 -298 534 C-300.52218015 534.36031145 -303.03032124 534.66674657 -305.5625 534.9375 C-307.11596913 535.10992452 -308.66935281 535.28312041 -310.22265625 535.45703125 C-311.01687988 535.54549316 -311.81110352 535.63395508 -312.62939453 535.72509766 C-314.88015355 535.98610226 -317.12538235 536.27312064 -319.37109375 536.57421875 C-326.29312196 537.50098032 -333.00877846 538.24968648 -340 538 C-339.34 537.67 -338.68 537.34 -338 537 C-337.79375 536.29875 -337.5875 535.5975 -337.375 534.875 C-335.08544383 530.08774619 -330.62369269 526.2184765 -325.8046875 523.98046875 C-323.64513398 523.07313465 -323.64513398 523.07313465 -323 520 C-321.67513924 519.31665076 -320.3405784 518.65197529 -319 518 C-317.27562667 516.30227334 -317.27562667 516.30227334 -315.6875 514.3125 C-313.26425907 511.45579141 -310.80674558 508.67926996 -308.1875 506 C-307.62417969 505.4225 -307.06085937 504.845 -306.48046875 504.25 C-305 503 -305 503 -303 503 C-302.67 502.01 -302.34 501.02 -302 500 C-300.44140625 498.39453125 -300.44140625 498.39453125 -298.5625 496.8125 C-297.63630859 496.01779297 -297.63630859 496.01779297 -296.69140625 495.20703125 C-295 494 -295 494 -293 494 C-292.67 493.01 -292.34 492.02 -292 491 C-291.34 491 -290.68 491 -290 491 C-289.67 490.01 -289.34 489.02 -289 488 C-288.34 488 -287.68 488 -287 488 C-286.67 487.01 -286.34 486.02 -286 485 C-284.46875 483.4921875 -284.46875 483.4921875 -282.5 481.875 C-279.34893765 479.20785079 -276.39410589 476.44435078 -273.5 473.5 C-270.08326575 470.0362195 -266.55337547 466.79971497 -262.85546875 463.640625 C-261.02251151 462.01990491 -259.32342959 460.32261589 -257.625 458.5625 C-255 456 -255 456 -253 456 C-252.7628125 455.42765625 -252.525625 454.8553125 -252.28125 454.265625 C-250.72406762 451.5120708 -248.87507203 449.83204366 -246.5 447.75 C-245.30890625 446.69039062 -245.30890625 446.69039062 -244.09375 445.609375 C-242 444 -242 444 -240 444 C-239.67 443.01 -239.34 442.02 -239 441 C-238.34 441 -237.68 441 -237 441 C-236.67 440.01 -236.34 439.02 -236 438 C-235.34 438 -234.68 438 -234 438 C-233.67 437.01 -233.34 436.02 -233 435 C-231.328125 433.3515625 -231.328125 433.3515625 -229.25 431.625 C-226.83412713 429.57947484 -224.5545552 427.5545552 -222.3125 425.3125 C-220 423 -220 423 -217.4375 421 C-214.94560177 419.1029767 -214.94560177 419.1029767 -213.1875 416.6875 C-210.79145839 413.74379174 -208.18243241 411.44012619 -205.3046875 408.98046875 C-202.66669401 406.71358282 -200.08237457 404.39248952 -197.5 402.0625 C-196.6440625 401.29035156 -195.788125 400.51820313 -194.90625 399.72265625 C-194.2771875 399.15417969 -193.648125 398.58570313 -193 398 C-189.14470391 399.5711518 -186.82348484 402.01820922 -183.97265625 405.0078125 C-183.00629212 406.00432609 -182.03948162 407.00040696 -181.07226562 407.99609375 C-179.56170352 409.56251146 -178.05538899 411.13248807 -176.55688477 412.71044922 C-175.10244992 414.23745116 -173.63274217 415.74833609 -172.16015625 417.2578125 C-170.85510132 418.62123779 -170.85510132 418.62123779 -169.52368164 420.01220703 C-167.16091081 422.23676236 -167.16091081 422.23676236 -164.17749023 422.29638672 C-163.45891846 422.1985791 -162.74034668 422.10077148 -162 422 C-161.67 421.01 -161.34 420.02 -161 419 C-160.34 419 -159.68 419 -159 419 C-158.67 418.01 -158.34 417.02 -158 416 C-157.34 416 -156.68 416 -156 416 C-155.67 415.01 -155.34 414.02 -155 413 C-153.34997172 411.64613064 -151.6825613 410.31321858 -150 409 C-149.34 408.01 -148.68 407.02 -148 406 C-147.34 406 -146.68 406 -146 406 C-145.67 405.01 -145.34 404.02 -145 403 C-144.34 403 -143.68 403 -143 403 C-142.67 402.01 -142.34 401.02 -142 400 C-141.34 400 -140.68 400 -140 400 C-139.67 399.01 -139.34 398.02 -139 397 C-138.34 397 -137.68 397 -137 397 C-136.67 396.01 -136.34 395.02 -136 394 C-135.34 394 -134.68 394 -134 394 C-133.67 393.01 -133.34 392.02 -133 391 C-132.34 391 -131.68 391 -131 391 C-130.67 390.01 -130.34 389.02 -130 388 C-128.0625 385.8125 -128.0625 385.8125 -126 384 C-125.34 384 -124.68 384 -124 384 C-123.67 383.01 -123.34 382.02 -123 381 C-122.34 381 -121.68 381 -121 381 C-120.67 380.01 -120.34 379.02 -120 378 C-119.34 378 -118.68 378 -118 378 C-117.67 377.01 -117.34 376.02 -117 375 C-116.34 375 -115.68 375 -115 375 C-114.67 374.01 -114.34 373.02 -114 372 C-113.34 372 -112.68 372 -112 372 C-111.67 371.01 -111.34 370.02 -111 369 C-110.34 369 -109.68 369 -109 369 C-108.67 368.01 -108.34 367.02 -108 366 C-107.34 366 -106.68 366 -106 366 C-105.67 365.01 -105.34 364.02 -105 363 C-103.0625 360.8125 -103.0625 360.8125 -101 359 C-100.34 359 -99.68 359 -99 359 C-98.67 358.01 -98.34 357.02 -98 356 C-97.34 356 -96.68 356 -96 356 C-95.67 355.01 -95.34 354.02 -95 353 C-94.34 353 -93.68 353 -93 353 C-92.67 352.01 -92.34 351.02 -92 350 C-91.34 350 -90.68 350 -90 350 C-89.67 349.01 -89.34 348.02 -89 347 C-88.34 347 -87.68 347 -87 347 C-86.67 346.01 -86.34 345.02 -86 344 C-85.34 344 -84.68 344 -84 344 C-83.67 343.01 -83.34 342.02 -83 341 C-82.34 341 -81.68 341 -81 341 C-80.67 340.01 -80.34 339.02 -80 338 C-78.0625 335.8125 -78.0625 335.8125 -76 334 C-75.34 334 -74.68 334 -74 334 C-73.67 333.01 -73.34 332.02 -73 331 C-72.34 331 -71.68 331 -71 331 C-70.67 330.01 -70.34 329.02 -70 328 C-69.34 328 -68.68 328 -68 328 C-67.67 327.01 -67.34 326.02 -67 325 C-66.34 325 -65.68 325 -65 325 C-64.67 324.01 -64.34 323.02 -64 322 C-63.34 322 -62.68 322 -62 322 C-61.67 321.01 -61.34 320.02 -61 319 C-60.34 319 -59.68 319 -59 319 C-58.67 318.01 -58.34 317.02 -58 316 C-57.34 316 -56.68 316 -56 316 C-55.34 314.68 -54.68 313.36 -54 312 C-53.34 312 -52.68 312 -52 312 C-51.67 311.01 -51.34 310.02 -51 309 C-50.34 309 -49.68 309 -49 309 C-48.67 308.01 -48.34 307.02 -48 306 C-47.34 306 -46.68 306 -46 306 C-45.67 305.01 -45.34 304.02 -45 303 C-44.34 303 -43.68 303 -43 303 C-42.67 302.01 -42.34 301.02 -42 300 C-41.34 300 -40.68 300 -40 300 C-39.67 299.01 -39.34 298.02 -39 297 C-38.34 297 -37.68 297 -37 297 C-36.67 296.01 -36.34 295.02 -36 294 C-35.34 294 -34.68 294 -34 294 C-33.67 293.01 -33.34 292.02 -33 291 C-32.34 291 -31.68 291 -31 291 C-30.34 289.68 -29.68 288.36 -29 287 C-28.34 287 -27.68 287 -27 287 C-26.67 286.01 -26.34 285.02 -26 284 C-25.34 284 -24.68 284 -24 284 C-23.67 283.01 -23.34 282.02 -23 281 C-22.34 281 -21.68 281 -21 281 C-20.67 280.01 -20.34 279.02 -20 278 C-19.34 278 -18.68 278 -18 278 C-17.67 277.01 -17.34 276.02 -17 275 C-16.34 275 -15.68 275 -15 275 C-14.67 274.01 -14.34 273.02 -14 272 C-13.34 272 -12.68 272 -12 272 C-11.67 271.01 -11.34 270.02 -11 269 C-10.34 269 -9.68 269 -9 269 C-8.67 268.01 -8.34 267.02 -8 266 C-7.34 266 -6.68 266 -6 266 C-5.34 264.68 -4.68 263.36 -4 262 C-3.34 262 -2.68 262 -2 262 C-1.67 261.01 -1.34 260.02 -1 259 C-0.34 259 0.32 259 1 259 C1.33 258.01 1.66 257.02 2 256 C2.66 256 3.32 256 4 256 C4.33 255.01 4.66 254.02 5 253 C5.66 253 6.32 253 7 253 C7.33 252.01 7.66 251.02 8 250 C8.66 250 9.32 250 10 250 C10.33 249.01 10.66 248.02 11 247 C11.66 247 12.32 247 13 247 C13.33 246.01 13.66 245.02 14 244 C14.66 244 15.32 244 16 244 C16.33 243.01 16.66 242.02 17 241 C17.66 241 18.32 241 19 241 C19.268125 240.401875 19.53625 239.80375 19.8125 239.1875 C20.99917406 237.00152146 22.09599113 235.58667406 24 234 C24.66 234 25.32 234 26 234 C26.33 233.01 26.66 232.02 27 231 C27.66 231 28.32 231 29 231 C29.33 230.01 29.66 229.02 30 228 C30.66 228 31.32 228 32 228 C32.33 227.01 32.66 226.02 33 225 C33.66 225 34.32 225 35 225 C35.33 224.01 35.66 223.02 36 222 C36.66 222 37.32 222 38 222 C38.33 221.01 38.66 220.02 39 219 C39.66 219 40.32 219 41 219 C41.33 218.01 41.66 217.02 42 216 C42.66 216 43.32 216 44 216 C44.268125 215.401875 44.53625 214.80375 44.8125 214.1875 C45.99917406 212.00152146 47.09599113 210.58667406 49 209 C49.66 209 50.32 209 51 209 C51.33 208.01 51.66 207.02 52 206 C52.66 206 53.32 206 54 206 C54.33 205.01 54.66 204.02 55 203 C55.66 203 56.32 203 57 203 C57.33 202.01 57.66 201.02 58 200 C58.66 200 59.32 200 60 200 C60.33 199.01 60.66 198.02 61 197 C61.66 197 62.32 197 63 197 C63.33 196.01 63.66 195.02 64 194 C64.66 194 65.32 194 66 194 C66.20625 193.46375 66.4125 192.9275 66.625 192.375 C68.53250426 189.08021991 71.04819384 186.40636372 74 184 C74.66 184 75.32 184 76 184 C76.33 183.01 76.66 182.02 77 181 C77.66 181 78.32 181 79 181 C79.33 180.01 79.66 179.02 80 178 C80.66 178 81.32 178 82 178 C82.33 177.01 82.66 176.02 83 175 C83.66 175 84.32 175 85 175 C85.33 174.01 85.66 173.02 86 172 C86.66 172 87.32 172 88 172 C88.33 171.01 88.66 170.02 89 169 C89.66 169 90.32 169 91 169 C91.20625 168.46375 91.4125 167.9275 91.625 167.375 C93.53250426 164.08021991 96.04819384 161.40636372 99 159 C99.66 159 100.32 159 101 159 C101.33 158.01 101.66 157.02 102 156 C102.66 156 103.32 156 104 156 C104.33 155.01 104.66 154.02 105 153 C105.66 153 106.32 153 107 153 C107.33 152.01 107.66 151.02 108 150 C108.66 150 109.32 150 110 150 C110.33 149.01 110.66 148.02 111 147 C111.66 147 112.32 147 113 147 C113.33 146.01 113.66 145.02 114 144 C114.66 144 115.32 144 116 144 C116.20625 143.46375 116.4125 142.9275 116.625 142.375 C118.53250426 139.08021991 121.04819384 136.40636372 124 134 C124.66 134 125.32 134 126 134 C126.33 133.01 126.66 132.02 127 131 C127.66 131 128.32 131 129 131 C129.33 130.01 129.66 129.02 130 128 C130.66 128 131.32 128 132 128 C132.33 127.01 132.66 126.02 133 125 C133.639375 124.87625 134.27875 124.7525 134.9375 124.625 C135.618125 124.41875 136.29875 124.2125 137 124 C138.15113692 121.49994587 138.15113692 121.49994587 139 119 C127.33432102 119.01486067 115.66907236 119.05639033 104.00362015 119.13209057 C98.58699238 119.16639988 93.17064784 119.19147669 87.75390625 119.19555664 C82.52762113 119.19983111 77.30197535 119.22822321 72.07588959 119.27343178 C70.08081535 119.28643404 68.0856647 119.29070485 66.09055328 119.28615379 C63.29827102 119.28126717 60.50787135 119.30725325 57.71582031 119.34057617 C56.88863495 119.33195053 56.06144958 119.32332489 55.209198 119.31443787 C51.21145483 119.39456058 49.43627813 119.56300003 46.55609131 122.44795227 C46.04258118 123.29012802 45.52907104 124.13230377 45 125 C43.92667838 125.99275753 42.82149857 126.95215979 41.6875 127.875 C36.62649279 132.18163066 32.01833604 136.92968745 27.36791992 141.66943359 C24.05627528 145.02538261 20.71920821 148.08931531 17 151 C16.401875 151.763125 15.80375 152.52625 15.1875 153.3125 C13.40741763 155.49945834 11.88600093 157.0043585 9.75390625 158.78125 C3.07959832 164.55658494 -3.03405575 170.92929754 -9.25 177.1875 C-10.52841068 178.4709374 -11.80705478 179.75414234 -13.0859375 181.03710938 C-15.42624843 183.3855318 -17.76523725 185.73525269 -20.10253906 188.08666992 C-20.60338013 188.58975677 -21.10422119 189.09284363 -21.62023926 189.61117554 C-22.82841177 190.8272846 -24.03134498 192.0485942 -25.23339844 193.27075195 C-27 195 -27 195 -29.5 196.9375 C-32.04452083 198.88649517 -32.04452083 198.88649517 -33.8125 201.3125 C-35.65708953 203.57871 -37.35796323 205.24755914 -39.5625 207.125 C-45.8082219 212.45671381 -51.566318 218.36541108 -57.203125 224.33203125 C-59 226 -59 226 -61 226 C-61.33 226.99 -61.66 227.98 -62 229 C-62.66 229 -63.32 229 -64 229 C-64.2475 229.78375 -64.495 230.5675 -64.75 231.375 C-66.19745174 234.41464865 -67.02642598 234.69906137 -70 236 C-70.66 236.99 -71.32 237.98 -72 239 C-72.66 239 -73.32 239 -74 239 C-74 239.66 -74 240.32 -74 241 C-75.66215268 242.33895632 -77.32963607 243.67130142 -79 245 C-79.598125 245.763125 -80.19625 246.52625 -80.8125 247.3125 C-82.62917605 249.54441629 -84.26590772 251.16005257 -86.4375 253 C-91.11020427 256.96605712 -95.35462907 261.32583445 -99.60717773 265.73242188 C-101.03539989 267.19114064 -102.51394371 268.60024443 -104 270 C-104.66 270 -105.32 270 -106 270 C-106 270.66 -106 271.32 -106 272 C-107.66666667 273.33333333 -109.33333333 274.66666667 -111 276 C-111.91828158 277.06437184 -112.8144155 278.14825051 -113.6875 279.25 C-114.450625 280.1575 -115.21375 281.065 -116 282 C-116.66 282 -117.32 282 -118 282 C-118.33 282.99 -118.66 283.98 -119 285 C-120.6015625 286.54296875 -120.6015625 286.54296875 -122.625 288.1875 C-125.51614633 290.63108453 -128.06089318 293.10566817 -130.5 296 C-133.36822955 299.3797197 -136.44174483 302.2149251 -139.8203125 305.07421875 C-143.2499091 308.10431037 -146.41225338 311.39221469 -149.60546875 314.66796875 C-151.95723452 316.95835075 -154.43554884 318.95537002 -157 321 C-157.598125 321.763125 -158.19625 322.52625 -158.8125 323.3125 C-160.68779392 325.61643252 -162.44286614 327.31553063 -164.6887207 329.22387695 C-168.69294749 332.69008504 -172.45035628 336.3363742 -176.16796875 340.10546875 C-176.81067215 340.75195877 -177.45337555 341.39844879 -178.11555481 342.06452942 C-180.14202101 344.10307158 -182.16517132 346.1448537 -184.1875 348.1875 C-186.86555793 350.89225271 -189.54698328 353.59360204 -192.23046875 356.29296875 C-192.83577927 356.90657761 -193.44108978 357.52018646 -194.06474304 358.15238953 C-197.23058394 361.33643559 -200.44783431 364.23982268 -204 367 C-205.49701545 368.64315155 -205.49701545 368.64315155 -206.6875 370.25 C-207.450625 371.1575 -208.21375 372.065 -209 373 C-209.66 373 -210.32 373 -211 373 C-211.33 373.99 -211.66 374.98 -212 376 C-212.66 376 -213.32 376 -214 376 C-214 376.66 -214 377.32 -214 378 C-215.43359375 379.41015625 -215.43359375 379.41015625 -217.4375 381.0625 C-220.67637549 383.8075044 -223.71028405 386.66033076 -226.6875 389.6875 C-228.98317406 392.01861328 -231.18652541 394.14837249 -233.75 396.1875 C-235.74189775 397.7920843 -237.10371744 399.27141946 -238.6875 401.25 C-239.450625 402.1575 -240.21375 403.065 -241 404 C-241.66 404 -242.32 404 -243 404 C-243.268125 404.804375 -243.53625 405.60875 -243.8125 406.4375 C-244.204375 407.283125 -244.59625 408.12875 -245 409 C-245.99 409.33 -246.98 409.66 -248 410 C-249.24234165 411.47119405 -250.48117381 412.94601198 -251.6796875 414.453125 C-253.53787086 416.63016822 -255.74256986 418.25049164 -258 420 C-259.67976077 421.65346887 -261.34393747 423.32279624 -263 425 C-264.06305178 426.06455186 -265.12688879 427.12832002 -266.19140625 428.19140625 C-266.74376953 428.74376953 -267.29613281 429.29613281 -267.86523438 429.86523438 C-272.94140625 434.94140625 -272.94140625 434.94140625 -274.54125977 436.5390625 C-275.78281228 437.78248514 -277.0171808 439.03307425 -278.25 440.28515625 C-280 442 -280 442 -282.4375 443.875 C-284.53859164 445.61736867 -286.00880949 447.14669954 -287.6875 449.25 C-288.450625 450.1575 -289.21375 451.065 -290 452 C-290.66 452 -291.32 452 -292 452 C-292 452.66 -292 453.32 -292 454 C-293.29736328 455.27172852 -293.29736328 455.27172852 -295.1953125 456.81640625 C-299.04915712 460.09191941 -302.6300141 463.55608164 -306.1796875 467.15234375 C-306.72264465 467.70097076 -307.26560181 468.24959778 -307.82501221 468.81484985 C-310.09000775 471.1069192 -312.35073784 473.4031161 -314.60742188 475.70336914 C-316.2730413 477.39900186 -317.94467587 479.08851301 -319.6171875 480.77734375 C-320.38432571 481.5646714 -320.38432571 481.5646714 -321.16696167 482.36790466 C-322.40717829 483.61695159 -323.69933895 484.81402517 -325 486 C-325.66 486 -326.32 486 -327 486 C-327 486.66 -327 487.32 -327 488 C-328.875 490.125 -328.875 490.125 -331 492 C-331.66 492 -332.32 492 -333 492 C-333.33 492.99 -333.66 493.98 -334 495 C-334.66 495 -335.32 495 -336 495 C-336.33 495.99 -336.66 496.98 -337 498 C-337.66 498 -338.32 498 -339 498 C-339.33 498.99 -339.66 499.98 -340 501 C-341.70703125 502.6484375 -341.70703125 502.6484375 -343.8125 504.375 C-346.14582006 506.34903007 -348.08458277 508.10572847 -350 510.5 C-352.27087235 513.33859043 -354.80651034 515.47368802 -357.5703125 517.8203125 C-361.20038331 521.07687121 -364.58274055 524.57442095 -367.96289062 528.08813477 C-369.27253558 529.42830111 -370.63258224 530.71883474 -372 532 C-372.66 532 -373.32 532 -374 532 C-374.33 532.99 -374.66 533.98 -375 535 C-375.66 535 -376.32 535 -377 535 C-377.33 535.99 -377.66 536.98 -378 538 C-379.65788785 539.34423339 -381.32576317 540.67618483 -383 542 C-383.598125 542.763125 -384.19625 543.52625 -384.8125 544.3125 C-386.70392514 546.63625089 -388.47824258 548.33251275 -390.75 550.25 C-393.76800709 552.82089493 -396.40828406 555.50013981 -399 558.5 C-402.12870555 562.11239976 -405.42234294 565.23742074 -409.06640625 568.3203125 C-411.5566554 570.48355924 -413.83497927 572.82133681 -416.14233398 575.17602539 C-417.85303835 576.85570371 -419.6120636 578.39818403 -421.4453125 579.94140625 C-425.10968128 583.12557562 -428.54904921 586.48484639 -431.9609375 589.93359375 C-432.48202087 590.46018585 -433.00310425 590.98677795 -433.53997803 591.52932739 C-435.70881917 593.72589979 -437.87379959 595.9261989 -440.03466797 598.13061523 C-441.63078899 599.75674919 -443.23292323 601.37675895 -444.8359375 602.99609375 C-445.3254892 603.49910507 -445.81504089 604.00211639 -446.31942749 604.52037048 C-447.50883537 605.71861993 -448.75024396 606.86483363 -450 608 C-450.66 608 -451.32 608 -452 608 C-452.33 608.99 -452.66 609.98 -453 611 C-453.66 611 -454.32 611 -455 611 C-455.33 611.99 -455.66 612.98 -456 614 C-456.66 614 -457.32 614 -458 614 C-458.33 614.99 -458.66 615.98 -459 617 C-459.66 617 -460.32 617 -461 617 C-461.33 617.99 -461.66 618.98 -462 620 C-462.66 620 -463.32 620 -464 620 C-464.33 620.99 -464.66 621.98 -465 623 C-466.70703125 624.6484375 -466.70703125 624.6484375 -468.8125 626.375 C-471.14582006 628.34903007 -473.08458277 630.10572847 -475 632.5 C-477.27087235 635.33859043 -479.80651034 637.47368802 -482.5703125 639.8203125 C-486.20038331 643.07687121 -489.58274055 646.57442095 -492.96289062 650.08813477 C-494.27253558 651.42830111 -495.63258224 652.71883474 -497 654 C-497.66 654 -498.32 654 -499 654 C-499.33 654.99 -499.66 655.98 -500 657 C-500.66 657 -501.32 657 -502 657 C-502.33 657.99 -502.66 658.98 -503 660 C-504.65788785 661.34423339 -506.32576317 662.67618483 -508 664 C-508.66 664.825 -509.32 665.65 -510 666.5 C-512.11041721 669.13802151 -514.34322642 670.92642062 -517 673 C-518.68002275 674.65320269 -520.34499352 676.32175416 -522 678 C-523.24136719 679.24922241 -523.24136719 679.24922241 -524.5078125 680.52368164 C-525.37148438 681.39371826 -526.23515625 682.26375488 -527.125 683.16015625 C-528.58359471 684.62612092 -530.0426681 686.09160728 -531.50195312 687.55688477 C-532.50154661 688.56152835 -533.50024371 689.56706459 -534.49804688 690.57348633 C-535.9546375 692.042279 -537.41449925 693.50775281 -538.875 694.97265625 C-539.73867188 695.84156494 -540.60234375 696.71047363 -541.4921875 697.60571289 C-543.89354624 699.89836526 -546.40743869 701.9304945 -549 704 C-550.36244796 705.64295195 -551.69864875 707.30824337 -553 709 C-555.00597862 711.10095472 -557.12988922 712.97938941 -559.3515625 714.84765625 C-563.20276449 718.19740883 -566.80951375 721.74635175 -570.3984375 725.37109375 C-570.96379211 725.94195709 -571.52914673 726.51282043 -572.1116333 727.10098267 C-574.47174273 729.48884784 -576.82803859 731.8804042 -579.18017578 734.27612305 C-580.91529364 736.04125453 -582.65642841 737.80026685 -584.3984375 739.55859375 C-584.93173676 740.10535263 -585.46503601 740.65211151 -586.01449585 741.21543884 C-587.30552223 742.51528518 -588.64844033 743.76321543 -590 745 C-590.66 745 -591.32 745 -592 745 C-592.33 745.99 -592.66 746.98 -593 748 C-594.65788785 749.34423339 -596.32576317 750.67618483 -598 752 C-598.598125 752.763125 -599.19625 753.52625 -599.8125 754.3125 C-601.60245179 756.51158363 -603.17308955 758.07217783 -605.3125 759.875 C-610.48971554 764.26630047 -615.17327366 769.15188534 -619.89575195 774.02099609 C-620.84067505 774.98320068 -620.84067505 774.98320068 -621.8046875 775.96484375 C-622.37171387 776.5487085 -622.93874023 777.13257324 -623.52294922 777.73413086 C-625 779 -625 779 -627 779 C-627.2475 779.78375 -627.495 780.5675 -627.75 781.375 C-629.2265111 784.47567332 -630.00808866 784.59204172 -633 786 C-634.34919532 787.65385233 -635.68133728 789.321702 -637 791 C-638.66666667 792.33333333 -640.33333333 793.66666667 -642 795 C-642.639375 795.804375 -643.27875 796.60875 -643.9375 797.4375 C-646.33403549 800.41501379 -649.04258417 802.58578299 -652 805 C-654.22313334 807.18111535 -656.40873653 809.39591264 -658.5871582 811.62158203 C-660.28416884 813.35496249 -661.98575241 815.08377113 -663.6875 816.8125 C-664.26822266 817.40998047 -664.84894531 818.00746094 -665.44726562 818.62304688 C-666.92725576 820.12014673 -668.45982782 821.56488731 -670 823 C-670.66 823 -671.32 823 -672 823 C-672 823.66 -672 824.32 -672 825 C-673.66215268 826.33895632 -675.32963607 827.67130142 -677 829 C-678.35827971 830.64639965 -679.69254251 832.31295807 -681 834 C-682.31328657 835.35308313 -683.64499081 836.68870078 -685 838 C-685.41006948 838.52623113 -685.82013895 839.05246225 -686.24263477 839.59463978 C-688.81896244 841.65492205 -690.78618471 841.36895693 -694.05534363 841.36076355 C-695.32159073 841.36488754 -696.58783783 841.36901154 -697.89245605 841.3732605 C-699.29834197 841.36264303 -700.70422573 841.3517386 -702.11010742 841.34057617 C-703.58836347 841.33973009 -705.06662078 841.34020468 -706.5448761 841.34190369 C-710.56120934 841.3427658 -714.57727477 841.32510523 -718.59354568 841.30418181 C-722.78958901 841.28545094 -726.98563822 841.28366741 -731.18171692 841.28010559 C-739.1290194 841.27077455 -747.07619834 841.24614648 -755.02344638 841.21605712 C-764.0704848 841.18254602 -773.11752907 841.16603539 -782.16461408 841.15097082 C-800.77647947 841.11959782 -819.38822981 841.06681678 -838 841 C-837.01 839.02 -836.02 837.04 -835 835 C-834.34 835 -833.68 835 -833 835 C-832.67 834.01 -832.34 833.02 -832 832 C-831.34 832 -830.68 832 -830 832 C-829.67 831.01 -829.34 830.02 -829 829 C-828.34 829 -827.68 829 -827 829 C-826.67 828.01 -826.34 827.02 -826 826 C-825.34 826 -824.68 826 -824 826 C-823.67 825.01 -823.34 824.02 -823 823 C-822.34 823 -821.68 823 -821 823 C-820.67 822.01 -820.34 821.02 -820 820 C-819.34 820 -818.68 820 -818 820 C-817.67 819.01 -817.34 818.02 -817 817 C-815.0625 814.8125 -815.0625 814.8125 -813 813 C-812.34 813 -811.68 813 -811 813 C-810.67 812.01 -810.34 811.02 -810 810 C-809.34 810 -808.68 810 -808 810 C-807.67 809.01 -807.34 808.02 -807 807 C-806.34 807 -805.68 807 -805 807 C-804.67 806.01 -804.34 805.02 -804 804 C-803.34 804 -802.68 804 -802 804 C-801.67 803.01 -801.34 802.02 -801 801 C-800.34 801 -799.68 801 -799 801 C-798.67 800.01 -798.34 799.02 -798 798 C-797.34 798 -796.68 798 -796 798 C-795.67 797.01 -795.34 796.02 -795 795 C-794.34 795 -793.68 795 -793 795 C-792.67 794.01 -792.34 793.02 -792 792 C-790.0625 789.8125 -790.0625 789.8125 -788 788 C-787.34 788 -786.68 788 -786 788 C-785.67 787.01 -785.34 786.02 -785 785 C-784.34 785 -783.68 785 -783 785 C-782.67 784.01 -782.34 783.02 -782 782 C-781.34 782 -780.68 782 -780 782 C-779.67 781.01 -779.34 780.02 -779 779 C-778.34 779 -777.68 779 -777 779 C-776.67 778.01 -776.34 777.02 -776 776 C-775.34 776 -774.68 776 -774 776 C-773.67 775.01 -773.34 774.02 -773 773 C-772.34 773 -771.68 773 -771 773 C-770.67 772.01 -770.34 771.02 -770 770 C-769.34 770 -768.68 770 -768 770 C-767.67 769.01 -767.34 768.02 -767 767 C-765.0625 764.8125 -765.0625 764.8125 -763 763 C-762.34 763 -761.68 763 -761 763 C-760.67 762.01 -760.34 761.02 -760 760 C-759.34 760 -758.68 760 -758 760 C-757.67 759.01 -757.34 758.02 -757 757 C-756.34 757 -755.68 757 -755 757 C-754.67 756.01 -754.34 755.02 -754 754 C-753.34 754 -752.68 754 -752 754 C-751.67 753.01 -751.34 752.02 -751 751 C-750.34 751 -749.68 751 -749 751 C-748.67 750.01 -748.34 749.02 -748 748 C-747.34 748 -746.68 748 -746 748 C-745.67 747.01 -745.34 746.02 -745 745 C-744.34 745 -743.68 745 -743 745 C-742.67 744.01 -742.34 743.02 -742 742 C-740.0625 739.8125 -740.0625 739.8125 -738 738 C-737.34 738 -736.68 738 -736 738 C-735.67 737.01 -735.34 736.02 -735 735 C-734.34 735 -733.68 735 -733 735 C-732.67 734.01 -732.34 733.02 -732 732 C-731.34 732 -730.68 732 -730 732 C-729.67 731.01 -729.34 730.02 -729 729 C-728.34 729 -727.68 729 -727 729 C-726.67 728.01 -726.34 727.02 -726 726 C-725.34 726 -724.68 726 -724 726 C-723.67 725.01 -723.34 724.02 -723 723 C-722.34 723 -721.68 723 -721 723 C-720.67 722.01 -720.34 721.02 -720 720 C-719.34 720 -718.68 720 -718 720 C-717.67 719.01 -717.34 718.02 -717 717 C-715.0625 714.8125 -715.0625 714.8125 -713 713 C-712.34 713 -711.68 713 -711 713 C-710.67 712.01 -710.34 711.02 -710 710 C-709.34 710 -708.68 710 -708 710 C-707.67 709.01 -707.34 708.02 -707 707 C-706.34 707 -705.68 707 -705 707 C-704.67 706.01 -704.34 705.02 -704 704 C-703.34 704 -702.68 704 -702 704 C-701.67 703.01 -701.34 702.02 -701 701 C-700.34 701 -699.68 701 -699 701 C-698.67 700.01 -698.34 699.02 -698 698 C-697.34 698 -696.68 698 -696 698 C-695.67 697.01 -695.34 696.02 -695 695 C-694.38125 694.71125 -693.7625 694.4225 -693.125 694.125 C-690.33206369 692.64638666 -689.55624314 690.68805633 -688 688 C-687.34 688 -686.68 688 -686 688 C-685.67 687.01 -685.34 686.02 -685 685 C-684.34 685 -683.68 685 -683 685 C-682.67 684.01 -682.34 683.02 -682 682 C-681.34 682 -680.68 682 -680 682 C-679.67 681.01 -679.34 680.02 -679 679 C-678.34 679 -677.68 679 -677 679 C-676.67 678.01 -676.34 677.02 -676 676 C-675.34 676 -674.68 676 -674 676 C-673.67 675.01 -673.34 674.02 -673 673 C-672.34 673 -671.68 673 -671 673 C-670.67 672.01 -670.34 671.02 -670 670 C-669.38125 669.71125 -668.7625 669.4225 -668.125 669.125 C-665.33206369 667.64638666 -664.55624314 665.68805633 -663 663 C-662.34 663 -661.68 663 -661 663 C-660.67 662.01 -660.34 661.02 -660 660 C-659.34 660 -658.68 660 -658 660 C-657.67 659.01 -657.34 658.02 -657 657 C-656.34 657 -655.68 657 -655 657 C-654.67 656.01 -654.34 655.02 -654 654 C-653.34 654 -652.68 654 -652 654 C-651.67 653.01 -651.34 652.02 -651 651 C-650.34 651 -649.68 651 -649 651 C-648.67 650.01 -648.34 649.02 -648 648 C-647.34 648 -646.68 648 -646 648 C-645.67 647.01 -645.34 646.02 -645 645 C-644.34 645 -643.68 645 -643 645 C-642.34 643.68 -641.68 642.36 -641 641 C-640.34 641 -639.68 641 -639 641 C-638.67 640.01 -638.34 639.02 -638 638 C-637.34 638 -636.68 638 -636 638 C-635.67 637.01 -635.34 636.02 -635 635 C-634.34 635 -633.68 635 -633 635 C-632.67 634.01 -632.34 633.02 -632 632 C-631.34 632 -630.68 632 -630 632 C-629.67 631.01 -629.34 630.02 -629 629 C-628.34 629 -627.68 629 -627 629 C-626.67 628.01 -626.34 627.02 -626 626 C-625.34 626 -624.68 626 -624 626 C-623.67 625.01 -623.34 624.02 -623 623 C-622.34 623 -621.68 623 -621 623 C-620.67 622.01 -620.34 621.02 -620 620 C-619.34 620 -618.68 620 -618 620 C-617.34 618.68 -616.68 617.36 -616 616 C-615.34 616 -614.68 616 -614 616 C-613.67 615.01 -613.34 614.02 -613 613 C-612.34 613 -611.68 613 -611 613 C-610.67 612.01 -610.34 611.02 -610 610 C-609.34 610 -608.68 610 -608 610 C-607.67 609.01 -607.34 608.02 -607 607 C-606.34 607 -605.68 607 -605 607 C-604.67 606.01 -604.34 605.02 -604 604 C-603.34 604 -602.68 604 -602 604 C-601.67 603.01 -601.34 602.02 -601 601 C-600.34 601 -599.68 601 -599 601 C-598.67 600.01 -598.34 599.02 -598 598 C-597.34 598 -596.68 598 -596 598 C-595.67 597.01 -595.34 596.02 -595 595 C-594.34 595 -593.68 595 -593 595 C-592.34 593.68 -591.68 592.36 -591 591 C-590.34 591 -589.68 591 -589 591 C-588.67 590.01 -588.34 589.02 -588 588 C-587.34 588 -586.68 588 -586 588 C-585.67 587.01 -585.34 586.02 -585 585 C-584.34 585 -583.68 585 -583 585 C-582.67 584.01 -582.34 583.02 -582 582 C-581.34 582 -580.68 582 -580 582 C-579.67 581.01 -579.34 580.02 -579 579 C-578.34 579 -577.68 579 -577 579 C-576.67 578.01 -576.34 577.02 -576 576 C-575.34 576 -574.68 576 -574 576 C-573.67 575.01 -573.34 574.02 -573 573 C-572.34 573 -571.68 573 -571 573 C-570.67 572.01 -570.34 571.02 -570 570 C-569.38125 569.71125 -568.7625 569.4225 -568.125 569.125 C-565.33206369 567.64638666 -564.55624314 565.68805633 -563 563 C-562.34 563 -561.68 563 -561 563 C-560.67 562.01 -560.34 561.02 -560 560 C-559.34 560 -558.68 560 -558 560 C-557.67 559.01 -557.34 558.02 -557 557 C-556.34 557 -555.68 557 -555 557 C-554.67 556.01 -554.34 555.02 -554 554 C-553.34 554 -552.68 554 -552 554 C-551.67 553.01 -551.34 552.02 -551 551 C-550.34 551 -549.68 551 -549 551 C-548.67 550.01 -548.34 549.02 -548 548 C-547.34 548 -546.68 548 -546 548 C-545.5978125 547.1028125 -545.5978125 547.1028125 -545.1875 546.1875 C-544.00082594 544.00152146 -542.90400887 542.58667406 -541 541 C-540.34 541 -539.68 541 -539 541 C-538.67 540.01 -538.34 539.02 -538 538 C-537.34 538 -536.68 538 -536 538 C-535.67 537.01 -535.34 536.02 -535 535 C-534.34 535 -533.68 535 -533 535 C-532.67 534.01 -532.34 533.02 -532 532 C-531.34 532 -530.68 532 -530 532 C-529.67 531.01 -529.34 530.02 -529 529 C-528.34 529 -527.68 529 -527 529 C-526.67 528.01 -526.34 527.02 -526 526 C-525.34 526 -524.68 526 -524 526 C-523.67 525.01 -523.34 524.02 -523 523 C-522.34 523 -521.68 523 -521 523 C-520.67 522.01 -520.34 521.02 -520 520 C-519.34 520 -518.68 520 -518 520 C-517.34 518.68 -516.68 517.36 -516 516 C-515.34 516 -514.68 516 -514 516 C-513.67 515.01 -513.34 514.02 -513 513 C-512.34 513 -511.68 513 -511 513 C-510.67 512.01 -510.34 511.02 -510 510 C-509.34 510 -508.68 510 -508 510 C-507.67 509.01 -507.34 508.02 -507 507 C-506.34 507 -505.68 507 -505 507 C-504.67 506.01 -504.34 505.02 -504 504 C-503.34 504 -502.68 504 -502 504 C-501.67 503.01 -501.34 502.02 -501 501 C-500.34 501 -499.68 501 -499 501 C-498.67 500.01 -498.34 499.02 -498 498 C-497.34 498 -496.68 498 -496 498 C-495.731875 497.401875 -495.46375 496.80375 -495.1875 496.1875 C-494.00082594 494.00152146 -492.90400887 492.58667406 -491 491 C-490.34 491 -489.68 491 -489 491 C-488.67 490.01 -488.34 489.02 -488 488 C-487.34 488 -486.68 488 -486 488 C-485.67 487.01 -485.34 486.02 -485 485 C-484.34 485 -483.68 485 -483 485 C-482.67 484.01 -482.34 483.02 -482 482 C-481.34 482 -480.68 482 -480 482 C-479.67 481.01 -479.34 480.02 -479 479 C-478.34 479 -477.68 479 -477 479 C-476.67 478.01 -476.34 477.02 -476 476 C-475.34 476 -474.68 476 -474 476 C-473.67 475.01 -473.34 474.02 -473 473 C-472.34 473 -471.68 473 -471 473 C-470.731875 472.401875 -470.46375 471.80375 -470.1875 471.1875 C-469.00082594 469.00152146 -467.90400887 467.58667406 -466 466 C-465.34 466 -464.68 466 -464 466 C-463.67 465.01 -463.34 464.02 -463 463 C-462.34 463 -461.68 463 -461 463 C-460.67 462.01 -460.34 461.02 -460 460 C-459.34 460 -458.68 460 -458 460 C-457.67 459.01 -457.34 458.02 -457 457 C-456.34 457 -455.68 457 -455 457 C-454.67 456.01 -454.34 455.02 -454 454 C-453.34 454 -452.68 454 -452 454 C-451.67 453.01 -451.34 452.02 -451 451 C-450.34 451 -449.68 451 -449 451 C-448.67 450.01 -448.34 449.02 -448 448 C-447.34 448 -446.68 448 -446 448 C-445.731875 447.401875 -445.46375 446.80375 -445.1875 446.1875 C-444.00082594 444.00152146 -442.90400887 442.58667406 -441 441 C-440.34 441 -439.68 441 -439 441 C-438.67 440.01 -438.34 439.02 -438 438 C-437.34 438 -436.68 438 -436 438 C-435.67 437.01 -435.34 436.02 -435 435 C-434.34 435 -433.68 435 -433 435 C-432.67 434.01 -432.34 433.02 -432 432 C-431.34 432 -430.68 432 -430 432 C-429.67 431.01 -429.34 430.02 -429 429 C-428.34 429 -427.68 429 -427 429 C-426.67 428.01 -426.34 427.02 -426 426 C-425.34 426 -424.68 426 -424 426 C-423.67 425.01 -423.34 424.02 -423 423 C-422.34 423 -421.68 423 -421 423 C-420.690625 422.195625 -420.690625 422.195625 -420.375 421.375 C-418.46749574 418.08021991 -415.95180616 415.40636372 -413 413 C-412.34 413 -411.68 413 -411 413 C-410.67 412.01 -410.34 411.02 -410 410 C-409.34 410 -408.68 410 -408 410 C-407.67 409.01 -407.34 408.02 -407 407 C-406.34 407 -405.68 407 -405 407 C-404.67 406.01 -404.34 405.02 -404 404 C-403.34 404 -402.68 404 -402 404 C-401.67 403.01 -401.34 402.02 -401 401 C-400.34 401 -399.68 401 -399 401 C-398.67 400.01 -398.34 399.02 -398 398 C-397.34 398 -396.68 398 -396 398 C-395.731875 397.401875 -395.46375 396.80375 -395.1875 396.1875 C-394.00082594 394.00152146 -392.90400887 392.58667406 -391 391 C-390.34 391 -389.68 391 -389 391 C-388.67 390.01 -388.34 389.02 -388 388 C-387.34 388 -386.68 388 -386 388 C-385.67 387.01 -385.34 386.02 -385 385 C-384.34 385 -383.68 385 -383 385 C-382.67 384.01 -382.34 383.02 -382 382 C-381.34 382 -380.68 382 -380 382 C-379.67 381.01 -379.34 380.02 -379 379 C-378.34 379 -377.68 379 -377 379 C-376.67 378.01 -376.34 377.02 -376 376 C-375.34 376 -374.68 376 -374 376 C-373.67 375.01 -373.34 374.02 -373 373 C-372.34 373 -371.68 373 -371 373 C-370.690625 372.195625 -370.690625 372.195625 -370.375 371.375 C-368.46749574 368.08021991 -365.95180616 365.40636372 -363 363 C-362.34 363 -361.68 363 -361 363 C-360.67 362.01 -360.34 361.02 -360 360 C-359.34 360 -358.68 360 -358 360 C-357.67 359.01 -357.34 358.02 -357 357 C-356.34 357 -355.68 357 -355 357 C-354.67 356.01 -354.34 355.02 -354 354 C-353.34 354 -352.68 354 -352 354 C-351.67 353.01 -351.34 352.02 -351 351 C-350.34 351 -349.68 351 -349 351 C-348.7628125 350.43796875 -348.525625 349.8759375 -348.28125 349.296875 C-346.71052303 346.48105958 -344.78528536 344.52044584 -342.5 342.25 C-341.7059375 341.45078125 -340.911875 340.6515625 -340.09375 339.828125 C-338 338 -338 338 -336 338 C-335.67 337.01 -335.34 336.02 -335 335 C-334.34 335 -333.68 335 -333 335 C-332.67 334.01 -332.34 333.02 -332 332 C-331.34 332 -330.68 332 -330 332 C-329.67 331.01 -329.34 330.02 -329 329 C-328.34 329 -327.68 329 -327 329 C-326.67 328.01 -326.34 327.02 -326 326 C-325.34 326 -324.68 326 -324 326 C-323.7628125 325.43796875 -323.525625 324.8759375 -323.28125 324.296875 C-321.71052303 321.48105958 -319.78528536 319.52044584 -317.5 317.25 C-316.7059375 316.45078125 -315.911875 315.6515625 -315.09375 314.828125 C-313 313 -313 313 -311 313 C-310.67 312.01 -310.34 311.02 -310 310 C-309.34 310 -308.68 310 -308 310 C-307.67 309.01 -307.34 308.02 -307 307 C-306.34 307 -305.68 307 -305 307 C-304.67 306.01 -304.34 305.02 -304 304 C-303.34 304 -302.68 304 -302 304 C-301.67 303.01 -301.34 302.02 -301 301 C-300.34 301 -299.68 301 -299 301 C-298.7628125 300.43796875 -298.525625 299.8759375 -298.28125 299.296875 C-296.71052303 296.48105958 -294.78528536 294.52044584 -292.5 292.25 C-291.7059375 291.45078125 -290.911875 290.6515625 -290.09375 289.828125 C-288 288 -288 288 -286 288 C-285.67 287.01 -285.34 286.02 -285 285 C-284.34 285 -283.68 285 -283 285 C-282.67 284.01 -282.34 283.02 -282 282 C-281.34 282 -280.68 282 -280 282 C-279.67 281.01 -279.34 280.02 -279 279 C-278.34 279 -277.68 279 -277 279 C-276.67 278.01 -276.34 277.02 -276 276 C-275.34 276 -274.68 276 -274 276 C-273.7628125 275.43796875 -273.525625 274.8759375 -273.28125 274.296875 C-271.71052303 271.48105958 -269.78528536 269.52044584 -267.5 267.25 C-266.7059375 266.45078125 -265.911875 265.6515625 -265.09375 264.828125 C-263 263 -263 263 -261 263 C-260.67 262.01 -260.34 261.02 -260 260 C-259.34 260 -258.68 260 -258 260 C-257.67 259.01 -257.34 258.02 -257 257 C-256.34 257 -255.68 257 -255 257 C-254.67 256.01 -254.34 255.02 -254 254 C-253.34 254 -252.68 254 -252 254 C-251.67 253.01 -251.34 252.02 -251 251 C-250.34 251 -249.68 251 -249 251 C-248.7628125 250.43796875 -248.525625 249.8759375 -248.28125 249.296875 C-246.71052303 246.48105958 -244.78528536 244.52044584 -242.5 242.25 C-241.30890625 241.05117188 -241.30890625 241.05117188 -240.09375 239.828125 C-238 238 -238 238 -236 238 C-235.67 237.01 -235.34 236.02 -235 235 C-234.34 235 -233.68 235 -233 235 C-232.67 234.01 -232.34 233.02 -232 232 C-231.34 232 -230.68 232 -230 232 C-229.67 231.01 -229.34 230.02 -229 229 C-228.34 229 -227.68 229 -227 229 C-226.67 228.01 -226.34 227.02 -226 226 C-225.34 226 -224.68 226 -224 226 C-223.7628125 225.43796875 -223.525625 224.8759375 -223.28125 224.296875 C-221.71052303 221.48105958 -219.78528536 219.52044584 -217.5 217.25 C-216.30890625 216.05117188 -216.30890625 216.05117188 -215.09375 214.828125 C-213 213 -213 213 -211 213 C-210.67 212.01 -210.34 211.02 -210 210 C-209.34 210 -208.68 210 -208 210 C-207.67 209.01 -207.34 208.02 -207 207 C-206.34 207 -205.68 207 -205 207 C-204.67 206.01 -204.34 205.02 -204 204 C-203.34 204 -202.68 204 -202 204 C-201.67 203.01 -201.34 202.02 -201 201 C-200.34 201 -199.68 201 -199 201 C-198.7628125 200.43796875 -198.525625 199.8759375 -198.28125 199.296875 C-196.71052303 196.48105958 -194.78528536 194.52044584 -192.5 192.25 C-191.30890625 191.05117188 -191.30890625 191.05117188 -190.09375 189.828125 C-188 188 -188 188 -186 188 C-185.67 187.01 -185.34 186.02 -185 185 C-184.34 185 -183.68 185 -183 185 C-182.67 184.01 -182.34 183.02 -182 182 C-181.34 182 -180.68 182 -180 182 C-179.67 181.01 -179.34 180.02 -179 179 C-178.34 179 -177.68 179 -177 179 C-176.79375 178.46890625 -176.5875 177.9378125 -176.375 177.390625 C-174.42038808 173.99226564 -171.77876283 171.48944072 -169 168.75 C-168.4534375 168.19570313 -167.906875 167.64140625 -167.34375 167.0703125 C-163.2533867 163 -163.2533867 163 -161 163 C-160.67 162.01 -160.34 161.02 -160 160 C-159.34 160 -158.68 160 -158 160 C-157.67 159.01 -157.34 158.02 -157 157 C-156.34 157 -155.68 157 -155 157 C-154.67 156.01 -154.34 155.02 -154 154 C-153.34 154 -152.68 154 -152 154 C-151.79375 153.46890625 -151.5875 152.9378125 -151.375 152.390625 C-149.42038808 148.99226564 -146.77876283 146.48944072 -144 143.75 C-143.4534375 143.19570313 -142.906875 142.64140625 -142.34375 142.0703125 C-138.2533867 138 -138.2533867 138 -136 138 C-135.67 137.01 -135.34 136.02 -135 135 C-134.34 135 -133.68 135 -133 135 C-132.67 134.01 -132.34 133.02 -132 132 C-131.34 132 -130.68 132 -130 132 C-129.67 131.01 -129.34 130.02 -129 129 C-128.34 129 -127.68 129 -127 129 C-126.79375 128.46890625 -126.5875 127.9378125 -126.375 127.390625 C-124.42038808 123.99226564 -121.77876283 121.48944072 -119 118.75 C-118.4534375 118.19570313 -117.906875 117.64140625 -117.34375 117.0703125 C-113.2533867 113 -113.2533867 113 -111 113 C-110.67 112.01 -110.34 111.02 -110 110 C-109.34 110 -108.68 110 -108 110 C-107.67 109.01 -107.34 108.02 -107 107 C-106.34 107 -105.68 107 -105 107 C-104.67 106.01 -104.34 105.02 -104 104 C-103.34 104 -102.68 104 -102 104 C-101.79375 103.46890625 -101.5875 102.9378125 -101.375 102.390625 C-99.42038808 98.99226564 -96.77876283 96.48944072 -94 93.75 C-93.4534375 93.19570313 -92.906875 92.64140625 -92.34375 92.0703125 C-88.2533867 88 -88.2533867 88 -86 88 C-85.67 87.01 -85.34 86.02 -85 85 C-84.34 85 -83.68 85 -83 85 C-82.67 84.01 -82.34 83.02 -82 82 C-81.34 82 -80.68 82 -80 82 C-79.67 81.01 -79.34 80.02 -79 79 C-78.34 79 -77.68 79 -77 79 C-76.79375 78.46890625 -76.5875 77.9378125 -76.375 77.390625 C-74.42038808 73.99226564 -71.77876283 71.48944072 -69 68.75 C-68.4534375 68.19570313 -67.906875 67.64140625 -67.34375 67.0703125 C-63.2533867 63 -63.2533867 63 -61 63 C-60.67 62.01 -60.34 61.02 -60 60 C-59.34 60 -58.68 60 -58 60 C-57.67 59.01 -57.34 58.02 -57 57 C-56.34 57 -55.68 57 -55 57 C-54.67 56.01 -54.34 55.02 -54 54 C-53.34 54 -52.68 54 -52 54 C-51.79375 53.46890625 -51.5875 52.9378125 -51.375 52.390625 C-49.42038808 48.99226564 -46.77876283 46.48944072 -44 43.75 C-43.4534375 43.19570313 -42.906875 42.64140625 -42.34375 42.0703125 C-38.2533867 38 -38.2533867 38 -36 38 C-35.67 37.01 -35.34 36.02 -35 35 C-34.34 35 -33.68 35 -33 35 C-32.67 34.01 -32.34 33.02 -32 32 C-31.34 32 -30.68 32 -30 32 C-29.67 31.01 -29.34 30.02 -29 29 C-28.34 29 -27.68 29 -27 29 C-26.79375 28.46890625 -26.5875 27.9378125 -26.375 27.390625 C-24.42038808 23.99226564 -21.77876283 21.48944072 -19 18.75 C-18.4534375 18.19570313 -17.906875 17.64140625 -17.34375 17.0703125 C-13.2533867 13 -13.2533867 13 -11 13 C-10.67 12.01 -10.34 11.02 -10 10 C-9.34 10 -8.68 10 -8 10 C-7.67 9.01 -7.34 8.02 -7 7 C-6.34 7 -5.68 7 -5 7 C-4.67 6.01 -4.34 5.02 -4 4 C-3.34 4 -2.68 4 -2 4 C-1.34 2.68 -0.68 1.36 0 0 Z " fill="#010101" transform="translate(1209,286)"/>
<path d="M0 0 C4.21010885 1.40848381 6.5468323 4.80244701 9.36830521 8.06971264 C10.06439896 8.87022045 10.76049271 9.67072826 11.47768021 10.49549389 C12.12865677 11.26248608 12.77963333 12.02947826 13.45033646 12.81971264 C15.37618063 14.76852911 16.96392984 15.66689458 19.41518021 16.80799389 C20.10004746 18.13207057 20.76388223 19.4670863 21.41518021 20.80799389 C23.0374256 22.51792822 24.70931445 24.18147073 26.41518021 25.80799389 C27.55986771 26.98361889 27.55986771 26.98361889 28.72768021 28.18299389 C31.57404874 30.96316781 34.53213842 33.5661564 37.54799271 36.15955639 C41.20565364 39.38870474 44.32649661 42.97870477 47.50111771 46.67518139 C49.71790849 49.14531969 52.06295396 51.46843975 54.41518021 53.80799389 C55.80228901 55.19246575 57.18917805 56.57715781 58.57591629 57.96200085 C60.2480807 59.63112978 61.92025111 61.3002527 63.5924263 62.96937084 C72.93799892 72.29855646 82.28100611 81.6303071 91.62253761 90.96353912 C97.27146116 96.60730745 102.92132329 102.25013021 108.57338333 107.89075756 C113.51807282 112.82545067 118.46097594 117.76192509 123.40178168 122.70050687 C126.01132716 125.30875511 128.62172864 127.91613284 131.23428345 130.52136707 C134.15199701 133.43096925 137.06571569 136.34454134 139.97914505 139.25843334 C140.83444305 140.11013607 141.68974106 140.9618388 142.57095718 141.8393507 C146.77035557 146.04594936 150.78793875 150.32908663 154.66471863 154.83322334 C157.92365046 158.50976368 161.43260072 161.9381122 164.92079544 165.39539623 C165.74111755 166.21265179 166.56143967 167.02990734 167.40662003 167.87192822 C169.17390534 169.63210172 170.94231618 171.39114576 172.71174812 173.14916134 C175.50847091 175.92841157 178.30156356 178.71126299 181.09366226 181.4951582 C189.0273827 189.40483407 196.96715637 197.30841789 204.91102982 205.20789623 C209.77992216 210.04966514 214.64357585 214.89665208 219.50446129 219.74645901 C221.35863787 221.59440996 223.21471183 223.4404591 225.07267952 225.28459835 C227.65807446 227.85090163 230.23736593 230.42319082 232.81532669 232.99695873 C233.58979141 233.76266186 234.36425613 234.52836498 235.16218948 235.31727123 C235.8588623 236.01524822 236.55553513 236.71322521 237.27331924 237.43235302 C237.8836724 238.03956377 238.49402555 238.64677452 239.12287426 239.2723856 C240.41518021 240.80799389 240.41518021 240.80799389 240.41518021 242.80799389 C241.40518021 243.13799389 242.39518021 243.46799389 243.41518021 243.80799389 C245.12626709 245.42902357 246.78771326 247.10302852 248.41518021 248.80799389 C249.24018021 249.63299389 250.06518021 250.45799389 250.91518021 251.30799389 C276.74851354 277.14132722 302.58184687 302.97466056 328.41518021 328.80799389 C329.26080521 329.63299389 330.10643021 330.45799389 330.97768021 331.30799389 C333.41518021 333.80799389 333.41518021 333.80799389 335.22768021 336.18299389 C337.7276135 339.18291384 340.50106661 341.57939115 343.46205521 344.11268139 C345.90263344 346.23110329 348.16125737 348.49315421 350.41518021 350.80799389 C351.26080521 351.63299389 352.10643021 352.45799389 352.97768021 353.30799389 C355.41518021 355.80799389 355.41518021 355.80799389 357.22768021 358.18299389 C359.7276135 361.18291384 362.50106661 363.57939115 365.46205521 366.11268139 C367.90263344 368.23110329 370.16125737 370.49315421 372.41518021 372.80799389 C374.83522575 375.28854057 377.14125818 377.60255237 379.91518021 379.68299389 C382.06924354 381.51394772 383.20146445 382.82861805 384.72768021 385.12049389 C387.20056978 388.79045103 390.2066773 391.37709003 393.64564896 394.13221264 C395.52485759 395.91186055 396.32629957 397.4876589 397.41518021 399.80799389 C375.31908047 399.92472317 353.22303146 400.01293106 331.1266861 400.06705475 C320.86727729 400.09285174 310.60805991 400.12803083 300.34877396 400.18519115 C291.40822688 400.23498034 282.46781842 400.26727402 273.52713656 400.27843636 C268.79171898 400.28496274 264.05669797 400.30033246 259.32140732 400.33664417 C254.86607565 400.3705329 250.41130463 400.38106136 245.95585632 400.3735323 C244.31914729 400.37491005 242.68241989 400.38488523 241.04582214 400.40402126 C238.81320762 400.42885001 236.58271794 400.42293894 234.35005569 400.40926647 C233.10010441 400.41387544 231.85015312 400.4184844 230.56232452 400.42323303 C227.41518021 399.80799389 227.41518021 399.80799389 225.13409424 397.4305706 C224.56685261 396.56512029 223.99961098 395.69966997 223.41518021 394.80799389 C221.02065916 392.2906769 218.69567335 390.01836374 215.91518021 387.93299389 C213.73640645 386.08103619 212.6295697 384.76162803 211.10268021 382.43299389 C208.63593759 378.75659865 205.63398286 376.52862784 201.98939896 374.06971264 C201.46990677 373.65334545 200.95041458 373.23697826 200.41518021 372.80799389 C200.41518021 372.14799389 200.41518021 371.48799389 200.41518021 370.80799389 C199.42518021 370.47799389 198.43518021 370.14799389 197.41518021 369.80799389 C197.41518021 369.14799389 197.41518021 368.48799389 197.41518021 367.80799389 C196.42518021 367.47799389 195.43518021 367.14799389 194.41518021 366.80799389 C194.41518021 366.14799389 194.41518021 365.48799389 194.41518021 364.80799389 C193.42518021 364.47799389 192.43518021 364.14799389 191.41518021 363.80799389 C191.41518021 363.14799389 191.41518021 362.48799389 191.41518021 361.80799389 C190.42518021 361.47799389 189.43518021 361.14799389 188.41518021 360.80799389 C187.25486043 359.11724222 186.09656117 357.42502195 184.95424271 355.72205639 C182.70147771 352.92039434 179.95216843 351.06862365 176.98939896 349.06971264 C176.46990677 348.65334545 175.95041458 348.23697826 175.41518021 347.80799389 C175.41518021 347.14799389 175.41518021 346.48799389 175.41518021 345.80799389 C174.42518021 345.47799389 173.43518021 345.14799389 172.41518021 344.80799389 C171.20424271 343.31971264 171.20424271 343.31971264 170.04018021 341.49549389 C168.35677902 338.99836403 167.14461965 337.59406228 164.72768021 335.68299389 C162.0822409 333.5380431 161.63903456 331.90842491 160.41518021 328.80799389 C158.56546324 327.75778286 158.56546324 327.75778286 156.41518021 326.80799389 C154.72701088 325.16311095 153.06164706 323.49461847 151.41518021 321.80799389 C150.59018021 321.14799389 149.76518021 320.48799389 148.91518021 319.80799389 C146.2051737 317.63998869 143.8379652 315.29134851 141.41518021 312.80799389 C140.17768021 311.57049389 140.17768021 311.57049389 138.91518021 310.30799389 C137.67768021 309.07049389 137.67768021 309.07049389 136.41518021 307.80799389 C135.56955521 306.98299389 134.72393021 306.15799389 133.85268021 305.30799389 C131.52069078 302.91620986 129.50002549 300.4140505 127.41518021 297.80799389 C124.86114119 295.1884667 122.24777674 292.64803058 119.60268021 290.12049389 C117.41518021 287.80799389 117.41518021 287.80799389 117.41518021 285.80799389 C116.30143021 285.46768139 116.30143021 285.46768139 115.16518021 285.12049389 C111.83820613 283.5326199 110.60301714 281.74789977 108.41518021 278.80799389 C106.76974241 277.12036538 105.10229444 275.45395899 103.41518021 273.80799389 C102.59018021 272.96236889 101.76518021 272.11674389 100.91518021 271.24549389 C98.52127052 268.81343142 98.52127052 268.81343142 96.04018021 266.99549389 C93.04026026 264.4955606 90.64378295 261.72210748 88.11049271 258.76111889 C85.9920708 256.32054066 83.73001988 254.06191673 81.41518021 251.80799389 C79.74748236 250.14235904 78.08092856 248.47557836 76.41518021 246.80799389 C74.85581079 245.25318572 73.29606584 243.69875411 71.73598099 242.14466381 C67.28005155 237.70475067 62.82634254 233.26262189 58.37424278 228.81886864 C55.69146135 226.14130126 53.00775226 223.4646775 50.32191849 220.79017162 C47.70737663 218.18657925 45.09536128 215.5804757 42.48500061 212.97269154 C41.49805234 211.98757236 40.51023354 211.00332445 39.52147675 210.02002048 C34.43478611 204.96028155 29.4538264 199.872432 24.79530716 194.41297436 C23.051582 192.38515741 21.19867073 190.49305049 19.29018021 188.62049389 C18.66885208 188.0081892 18.04752396 187.39588451 17.40736771 186.76502514 C16.42123489 185.79629467 16.42123489 185.79629467 15.41518021 184.80799389 C13.74704057 183.1428015 12.08068015 181.47582646 10.41518021 179.80799389 C9.07151606 178.46415805 7.72775756 177.12041653 6.38393021 175.77674389 C-11.60565313 157.78716056 -29.59523646 139.79757722 -47.58481979 121.80799389 C-48.32595016 121.10811352 -49.06708054 120.40823315 -49.8306694 119.68714428 C-51.58481979 117.80799389 -51.58481979 117.80799389 -51.58481979 115.80799389 C-52.18423386 115.54760326 -52.78364792 115.28721264 -53.40122604 115.01893139 C-55.73420354 113.72515138 -56.8825976 112.51330625 -58.52231979 110.43299389 C-60.97149038 107.45460554 -63.51958694 105.16586532 -66.58481979 102.80799389 C-68.27244831 101.16255609 -69.93885469 99.49510812 -71.58481979 97.80799389 C-72.40981979 96.98299389 -73.23481979 96.15799389 -74.08481979 95.30799389 C-76.58481979 92.80799389 -79.08481979 90.30799389 -81.58481979 87.80799389 C-82.20356979 87.29236889 -82.82231979 86.77674389 -83.45981979 86.24549389 C-83.83106979 85.77111889 -84.20231979 85.29674389 -84.58481979 84.80799389 C-84.15658803 81.36274969 -82.82838254 79.67091727 -80.42313766 77.24517345 C-79.74744232 76.55668316 -79.07174698 75.86819286 -78.37557602 75.15883923 C-77.25663704 74.04193958 -77.25663704 74.04193958 -76.11509323 72.90247631 C-75.33293945 72.1102467 -74.55078568 71.31801708 -73.74493027 70.50178051 C-71.15265442 67.88096672 -68.54916465 65.27165569 -65.94419479 62.66346264 C-64.14133608 60.85096877 -62.33870639 59.03824706 -60.53629684 57.22530651 C-56.75524676 53.42628165 -52.96809983 49.63346177 -49.17710495 45.84437084 C-44.79338373 41.4624539 -40.42668953 37.06406267 -36.06760955 32.65764445 C-31.87386854 28.41998996 -27.66366603 24.19896644 -23.44701004 19.98410511 C-21.65436205 18.18790741 -19.86659872 16.38682132 -18.08377457 14.58087254 C-15.593838 12.06167501 -13.08577205 9.56204651 -10.57212448 7.06653881 C-9.83426208 6.31181789 -9.09639969 5.55709698 -8.33617783 4.77950573 C-7.64920319 4.10511456 -6.96222855 3.43072338 -6.25443649 2.73589611 C-5.66302242 2.14284774 -5.07160835 1.54979937 -4.46227264 0.93877983 C-2.58481979 -0.19200611 -2.58481979 -0.19200611 0 0 Z " fill="#010101" transform="translate(1232.5848197937012,727.192006111145)"/>
<path d="M0 0 C17.58795466 -0.0235717 35.17590425 -0.04109642 52.76387119 -0.05181217 C60.93397621 -0.05692439 69.10407129 -0.0638677 77.27416992 -0.07543945 C84.41200533 -0.08554416 91.54983353 -0.09189008 98.68767589 -0.09408849 C102.45183801 -0.09536942 106.21597958 -0.09828224 109.98013496 -0.10573006 C111.41844299 -0.10828104 112.85675107 -0.11080347 114.2950592 -0.11329651 C115.35019552 -0.1154962 115.35019552 -0.1154962 116.42664772 -0.11774033 C119.89829908 -0.12207608 123.36871203 -0.11074554 126.84010792 -0.06669903 C128.19889387 -0.0501366 129.55768239 -0.03378229 130.91647339 -0.01763916 C131.58373174 -0.00941016 132.25099009 -0.00118115 132.9384684 0.00729722 C137.03057468 0.03954848 141.08907902 -0.08086065 145.17470652 -0.3069796 C159.19017838 -1.05511683 170.31011013 -0.97772343 181.18261719 8.77685547 C184.69831924 12.18303707 187.99648364 15.75385528 191.296875 19.3671875 C193.12196726 21.24841033 194.95392796 23.12299119 196.79229736 24.99124146 C201.08336731 29.37448905 205.2924159 33.82801159 209.47510266 38.31453145 C214.23930117 43.4168803 219.09143475 48.43192094 223.95199347 53.4422853 C233.52763524 63.31654807 243.00248869 73.2830588 252.40559006 83.3217907 C253.91253901 84.90794221 255.44615814 86.45991162 257 88 C281 112 305 136 329 160 C329.53004639 160.52980469 330.06009277 161.05960938 330.60620117 161.60546875 C331.78480768 162.78469459 332.96103095 163.96630169 334.13671875 165.1484375 C336.47303094 167.48737771 338.83904475 169.79472242 341.20703125 172.1015625 C342.74235178 173.60920772 344.27750416 175.1170242 345.8125 176.625 C346.99489258 177.7696875 346.99489258 177.7696875 348.20117188 178.9375 C349.31782227 180.03964844 349.31782227 180.03964844 350.45703125 181.1640625 C351.13741455 181.82873535 351.81779785 182.4934082 352.51879883 183.17822266 C354 185 354 185 354 188 C352.51317406 189.56559372 352.51317406 189.56559372 350.46786499 191.22772217 C346.26899239 194.74920303 342.38130183 198.47709814 338.51416016 202.35644531 C337.81394745 203.0549057 337.11373474 203.75336609 336.39230347 204.47299194 C334.10538786 206.7555474 331.8221007 209.04169184 329.5390625 211.328125 C327.94117586 212.92533731 326.34314085 214.5224012 324.7449646 216.11932373 C321.4098924 219.4529272 318.07662187 222.78831888 314.74462891 226.125 C310.47075871 230.40459021 306.19238348 234.67964417 301.91266823 238.95338821 C298.6184025 242.24404578 295.32651554 245.53707466 292.0353508 248.83083344 C290.45799561 250.40885599 288.87989647 251.98613526 287.30104446 253.56266022 C285.10142797 255.75974354 282.90503152 257.95999568 280.70947266 260.16113281 C279.72923126 261.13833786 279.72923126 261.13833786 278.72918701 262.13528442 C278.13217987 262.73511139 277.53517273 263.33493835 276.92007446 263.95294189 C276.40135584 264.47203754 275.88263721 264.99113319 275.34819984 265.52595901 C273.77911037 267.16640597 273.77911037 267.16640597 272 270 C266.0741182 269.12209159 261.85266296 264.26916706 258 260 C257.649375 259.113125 257.29875 258.22625 256.9375 257.3125 C255.74705765 254.37607554 254.78201936 254.35126655 252 253 C245.64760532 247.98628094 240.02889073 242.32666898 235 236 C234.2575 235.278125 233.515 234.55625 232.75 233.8125 C231 232 231 232 231 230 C230.42121094 229.73832031 229.84242188 229.47664062 229.24609375 229.20703125 C222.68677038 225.68210791 216.57889114 219.32760148 212.0625 213.5 C210.35201632 211.42668645 208.89797308 210.06118975 206.8125 208.4375 C203.91467062 205.92604787 203.71631492 205.46218877 203 202 C201.67196185 201.32284648 200.3375377 200.65819079 199 200 C193.64201132 195.77113021 188.33252112 191.05640698 184.1875 185.625 C182.29650745 183.35580894 180.49042526 181.6454085 178.25 179.75 C174.40504231 176.47068785 171.12070241 172.88249887 167.8125 169.0703125 C165.64781543 166.59772021 163.35484566 164.29120118 161 162 C160.175 161.154375 159.35 160.30875 158.5 159.4375 C156.05534084 156.94920874 156.05534084 156.94920874 153.25 154.9375 C151 153 151 153 150.5 150.875 C150.335 150.25625 150.17 149.6375 150 149 C148.3364521 148.32558869 146.66933058 147.6599679 145 147 C143 144.6875 143 144.6875 141 142 C139.3545622 140.31237149 137.68711423 138.6459651 136 137 C135.175 136.154375 134.35 135.30875 133.5 134.4375 C131.05534084 131.94920874 131.05534084 131.94920874 128.25 129.9375 C126 128 126 128 125.5 125.875 C125.335 125.25625 125.17 124.6375 125 124 C123.3364521 123.32558869 121.66933058 122.6599679 120 122 C118 119.6875 118 119.6875 116 117 C114.3545622 115.31237149 112.68711423 113.6459651 111 112 C110.175 111.154375 109.35 110.30875 108.5 109.4375 C106.05534084 106.94920874 106.05534084 106.94920874 103.25 104.9375 C101 103 101 103 100.5 100.875 C100.335 100.25625 100.17 99.6375 100 99 C98.3364521 98.32558869 96.66933058 97.6599679 95 97 C93 94.6875 93 94.6875 91 92 C89.3545622 90.31237149 87.68711423 88.6459651 86 87 C85.175 86.154375 84.35 85.30875 83.5 84.4375 C81.10609032 82.00543753 81.10609032 82.00543753 78.625 80.1875 C75.62508005 77.68756671 73.22860274 74.9141136 70.6953125 71.953125 C68.5768906 69.51254677 66.31483967 67.25392284 64 65 C63.175 64.154375 62.35 63.30875 61.5 62.4375 C59.10609032 60.00543753 59.10609032 60.00543753 56.625 58.1875 C53.62508005 55.68756671 51.22860274 52.9141136 48.6953125 49.953125 C46.5768906 47.51254677 44.31483967 45.25392284 42 43 C41.175 42.154375 40.35 41.30875 39.5 40.4375 C37.07084467 37.97984112 37.07084467 37.97984112 34.4375 36 C31.85415665 33.88033366 29.93316435 31.72074983 28 29 C28 28.34 28 27.68 28 27 C27.2575 26.773125 26.515 26.54625 25.75 26.3125 C22.42302592 24.72462601 21.18783693 22.93990588 19 20 C17.3545622 18.31237149 15.68711423 16.6459651 14 15 C12.33333333 13.33333333 10.66666667 11.66666667 9 10 C8.1028125 9.1646875 8.1028125 9.1646875 7.1875 8.3125 C6 7 6 7 6 5 C5.195625 4.731875 4.39125 4.46375 3.5625 4.1875 C2.716875 3.795625 1.87125 3.40375 1 3 C0.67 2.01 0.34 1.02 0 0 Z " fill="#010101" transform="translate(625,289)"/>
<path d="M0 0 C0 0.66 0 1.32 0 2 C-1.05058594 2.04898438 -2.10117188 2.09796875 -3.18359375 2.1484375 C-12.01701385 2.49823202 -12.01701385 2.49823202 -20.6875 4.0625 C-26.36197052 5.5528765 -32.17932258 5.16193538 -38 5 C-38 4.67 -38 4.34 -38 4 C-31.10541835 2.29957468 -24.38528 1.43422175 -17.3125 0.875 C-16.30638672 0.78863281 -15.30027344 0.70226562 -14.26367188 0.61328125 C-9.4970984 0.217376 -4.78768503 -0.1141867 0 0 Z " fill="#636363" transform="translate(1038,802)"/>
<path d="M0 0 C0.33 0.66 0.66 1.32 1 2 C-2.9059496 6.63023165 -6.96681743 11.09176017 -11.1875 15.4375 C-12.00605469 16.28183594 -12.82460938 17.12617187 -13.66796875 17.99609375 C-15.91328687 19.92548771 -17.11218579 20.63487407 -20 21 C-16.28245198 16.47865782 -12.35952636 12.22584239 -8.25 8.0625 C-7.76619873 7.56580811 -7.28239746 7.06911621 -6.78393555 6.55737305 C-5.56151636 5.33152671 -4.28448257 4.16065173 -3 3 C-2.34 3 -1.68 3 -1 3 C-0.67 2.01 -0.34 1.02 0 0 Z " fill="#C6C6C6" transform="translate(858,796)"/>
<path d="M0 0 C0.33 0.66 0.66 1.32 1 2 C-3.03523352 6.81123996 -7.04467233 11.13242719 -12 15 C-12.66 14.67 -13.32 14.34 -14 14 C-9.38 9.38 -4.76 4.76 0 0 Z " fill="#414141" transform="translate(1177,780)"/>
<path d="M0 0 C0.33 0.66 0.66 1.32 1 2 C-3.03523352 6.81123996 -7.04467233 11.13242719 -12 15 C-12.66 14.67 -13.32 14.34 -14 14 C-9.38 9.38 -4.76 4.76 0 0 Z " fill="#404040" transform="translate(1202,755)"/>
<path d="M0 0 C0.33 0.66 0.66 1.32 1 2 C-3.03523352 6.81123996 -7.04467233 11.13242719 -12 15 C-12.66 14.67 -13.32 14.34 -14 14 C-9.38 9.38 -4.76 4.76 0 0 Z " fill="#404040" transform="translate(1227,730)"/>
<path d="M0 0 C0.33 0.66 0.66 1.32 1 2 C-0.09346881 3.34212062 -1.2001575 4.67347975 -2.3125 6 C-3.23482422 7.11375 -3.23482422 7.11375 -4.17578125 8.25 C-6 10 -6 10 -9 10 C-7.61811547 6.78956118 -6.07578097 4.95063635 -3.375 2.75 C-2.74335937 2.22921875 -2.11171875 1.7084375 -1.4609375 1.171875 C-0.73777344 0.59179688 -0.73777344 0.59179688 0 0 Z " fill="#3A3A3A" transform="translate(880,812)"/>
<path d="M0 0 C5.28 0 10.56 0 16 0 C16 0.66 16 1.32 16 2 C8.08 2.495 8.08 2.495 0 3 C0 2.01 0 1.02 0 0 Z " fill="#C2C2C2" transform="translate(867,823)"/>
<path d="M0 0 C0.66 0.33 1.32 0.66 2 1 C-2.82142857 7.29464286 -2.82142857 7.29464286 -7 8 C-6.02133662 6.85373678 -5.04205413 5.70800212 -4.0625 4.5625 C-3.51722656 3.92441406 -2.97195313 3.28632812 -2.41015625 2.62890625 C-1.63204305 1.73008851 -0.84063472 0.84063472 0 0 Z " fill="#BCBCBC" transform="translate(1120,540)"/>
<path d="M0 0 C0.33 0.66 0.66 1.32 1 2 C0.06553465 4.03144641 -0.93224776 6.03533587 -2 8 C-1.34 8 -0.68 8 0 8 C-0.33 8.66 -0.66 9.32 -1 10 C-2.5625 8.75 -2.5625 8.75 -4 7 C-3.83394098 4.34305562 -3.21086001 3.23616321 -1.4375 1.25 C-0.963125 0.8375 -0.48875 0.425 0 0 Z " fill="#515151" transform="translate(1152,805)"/>
</svg>
